# xmcd
#
# Track frame offsets: 
#        150
#        15039
#        29489
#        49487
#        63357
#        83931
#        98277
#        112718
#        125773
#        139523
#        153954
#        169258
#        182978
#        201853
#
# Disc length: 2909 seconds
#
# Revision: 0
# Processed by: cddbd v1.4PL0 Copyright (c) Steve Scherf et al.
# Submitted via: ExactAudioCopy v0.90b3
#
DISCID=af0b5b0e
DTITLE=Kath Bloom and Loren Mazzacane Connors - 1981-1984
DYEAR=1999
DGENRE=Blues
TTITLE0=Biggest Light of All
TTITLE1=Moses
TTITLE2=Swing Low, Sweet Chariot
TTITLE3=I Was Wondering
TTITLE4=My Stupid Little Heart
TTITLE5=When I Feel You Coming
TTITLE6=Come Here My Sweetest One
TTITLE7=How It Rains
TTITLE8=Without You
TTITLE9=Love Makes It All Worthwhile
TTITLE10=Bicycle Song
TTITLE11=Puccini
TTITLE12=What If We Were Together
TTITLE13=A Homeless Dream
EXTD=
EXTT0=
EXTT1=
EXTT2=
EXTT3=
EXTT4=
EXTT5=
EXTT6=
EXTT7=
EXTT8=
EXTT9=
EXTT10=
EXTT11=
EXTT12=
EXTT13=
PLAYORDER=
